<mxfile><diagram name="C4-2 Container"><mxGraphModel><root><mxCell id="0"/><mxCell id="1" parent="0"/><mxCell id="2" value="Frontend (Vue.js)" style="shape=rectangle;" vertex="1" parent="1"><mxGeometry x="40" y="100" width="160" height="60" as="geometry"/></mxCell><mxCell id="3" value="Backend (Laravel API)" style="shape=rectangle;" vertex="1" parent="1"><mxGeometry x="240" y="100" width="180" height="60" as="geometry"/></mxCell><mxCell id="4" value="Workers (EPG, TMDb sync, Notifications)" style="shape=rectangle;" vertex="1" parent="1"><mxGeometry x="240" y="200" width="240" height="60" as="geometry"/></mxCell><mxCell id="5" value="PostgreSQL" style="shape=cylinder;" vertex="1" parent="1"><mxGeometry x="540" y="100" width="100" height="60" as="geometry"/></mxCell><mxCell id="6" value="OpenSearch" style="shape=ellipse;" vertex="1" parent="1"><mxGeometry x="540" y="200" width="100" height="60" as="geometry"/></mxCell><mxCell id="7" value="Redis" style="shape=ellipse;" vertex="1" parent="1"><mxGeometry x="540" y="300" width="100" height="60" as="geometry"/></mxCell><mxCell id="8" value="RabbitMQ" style="shape=ellipse;" vertex="1" parent="1"><mxGeometry x="540" y="400" width="100" height="60" as="geometry"/></mxCell><mxCell id="9" value="S3 / MinIO" style="shape=cylinder;" vertex="1" parent="1"><mxGeometry x="540" y="500" width="100" height="60" as="geometry"/></mxCell><mxCell id="10" value="Keycloak / Auth0" style="shape=ellipse;" vertex="1" parent="1"><mxGeometry x="240" y="300" width="160" height="60" as="geometry"/></mxCell></root></mxGraphModel></diagram></mxfile>